<?xml version="1.0" encoding="utf-8"?><svg version="1.1" id="Layer_1" xmlns="http://www.w3.org/2000/svg" xmlns:xlink="http://www.w3.org/1999/xlink" x="0px" y="0px" viewBox="0 0 105.41 122.88" style="enable-background:new 0 0 105.41 122.88" xml:space="preserve"><style type="text/css">.st0{fill-rule:evenodd;clip-rule:evenodd;}</style><g><path class="st0" d="M101.49,44.61c-0.44,3.06-0.94,6.21-1.37,9.17l0.51,5.65c1.63,0.17,2.83,1.12,3.66,2.6 c1,1.81,1.29,4.47,1.03,7.39c-0.25,2.76-0.98,5.81-2.05,8.54c-1.89,4.84-4.91,8.83-8.44,9.28c-0.38,1.24-0.76,2.52-1.12,3.74 c-1.81,6.11-3.23,10.91-6.94,15.61c-4.13,5.23-9.47,9.23-15.12,11.95c-6.21,2.99-12.84,4.46-18.73,4.34 c-5.55-0.12-11.88-1.67-17.86-4.57c-5.45-2.64-10.65-6.4-14.75-11.2c-4.54-5.31-6.43-10.94-8.88-18.26 c-0.29-0.87-0.59-1.76-0.87-2.59c-3.11-0.04-5.73-2.68-7.58-6.35c-1.44-2.85-2.44-6.36-2.81-9.61c-0.38-3.4-0.06-6.6,1.17-8.63 c0.87-1.43,2.11-2.33,3.74-2.45l0.5-5.04c-0.64-3.9-1.4-8-1.96-11.92C-4.09-11.72,110.4-17.21,101.49,44.61L101.49,44.61z M40.53,104.23c-0.76-0.61-0.88-1.71-0.28-2.47c0.61-0.76,1.71-0.88,2.47-0.28c3.65,2.92,7.06,4.35,10.24,4.34 c3.1-0.01,6.09-1.43,8.96-4.23c0.7-0.68,1.81-0.66,2.49,0.03c0.68,0.7,0.66,1.81-0.03,2.49c-3.54,3.45-7.35,5.21-11.41,5.22 C48.97,109.35,44.83,107.66,40.53,104.23L40.53,104.23z M47.59,93.08c-0.72-0.66-0.77-1.77-0.12-2.49 c0.66-0.72,1.77-0.77,2.49-0.12c0.9,0.82,1.75,1.21,2.54,1.21c0.8-0.01,1.67-0.43,2.6-1.23c0.74-0.64,1.85-0.56,2.48,0.18 c0.64,0.74,0.56,1.85-0.18,2.48c-1.56,1.35-3.19,2.07-4.87,2.09C50.82,95.21,49.18,94.52,47.59,93.08L47.59,93.08z M36.78,77.76 c0.04,0.21,0.07,0.43,0.07,0.65c0,1.78-1.44,3.22-3.22,3.22c-1.78,0-3.22-1.44-3.22-3.22c0-0.46,0.1-0.9,0.27-1.3 c-1.67,0.12-3.34,0.5-5.02,1.16c-0.81,0.32-1.7-0.18-1.98-1.1c-0.28-0.92,0.15-1.93,0.97-2.25c2.44-0.96,4.9-1.4,7.37-1.38 c2.45,0.02,4.89,0.49,7.32,1.37c0.82,0.29,1.27,1.29,1.01,2.21c-0.26,0.93-1.13,1.44-1.95,1.15 C37.86,78.08,37.32,77.91,36.78,77.76L36.78,77.76z M68.44,77.47c-0.04,0.19-0.06,0.39-0.06,0.6c0,1.78,1.44,3.22,3.22,3.22 c1.78,0,3.22-1.44,3.22-3.22c0-0.4-0.07-0.78-0.2-1.13c1.66,0.12,3.33,0.46,5.02,1.01c0.83,0.27,1.69-0.28,1.92-1.22 c0.24-0.94-0.24-1.92-1.07-2.19c-2.44-0.8-4.89-1.19-7.33-1.19c-2.43,0-4.85,0.41-7.24,1.2c-0.82,0.27-1.3,1.25-1.06,2.19 c0.24,0.94,1.1,1.48,1.92,1.2C67.34,77.77,67.89,77.61,68.44,77.47L68.44,77.47z M83.67,66.44c0.75,0.62,0.86,1.73,0.24,2.48 c-0.62,0.75-1.73,0.86-2.48,0.24c-2.45-2.02-7.47-1.12-11.77-0.34c-2.32,0.42-4.47,0.8-6.19,0.74c-0.97-0.03-1.73-0.85-1.7-1.82 c0.03-0.97,0.85-1.73,1.82-1.7c1.36,0.05,3.32-0.3,5.44-0.69C74.09,64.44,79.97,63.38,83.67,66.44L83.67,66.44z M23.79,69.5 c-0.75,0.62-1.86,0.51-2.48-0.24c-0.62-0.75-0.51-1.86,0.24-2.48c3.7-3.05,9.58-2,14.63-1.09c2.13,0.38,4.09,0.73,5.44,0.69 c0.97-0.03,1.79,0.73,1.82,1.7c0.03,0.97-0.73,1.79-1.7,1.82c-1.72,0.06-3.86-0.32-6.19-0.74C31.26,68.38,26.24,67.48,23.79,69.5 L23.79,69.5z M8.81,71.27c0.29-0.5,0.92-0.67,1.42-0.38c0.5,0.29,0.67,0.92,0.38,1.42c-0.35,0.6-0.55,1.19-0.56,1.75 c-0.01,0.54,0.15,1.08,0.52,1.64c0.32,0.47,0.2,1.12-0.28,1.44c-0.47,0.32-1.12,0.2-1.44-0.28c-0.64-0.94-0.91-1.89-0.88-2.85 C8,73.08,8.3,72.16,8.81,71.27L8.81,71.27z M94.29,72.3c-0.29-0.5-0.11-1.13,0.38-1.42c0.5-0.29,1.13-0.11,1.42,0.38 c0.51,0.89,0.82,1.81,0.84,2.74c0.02,0.96-0.25,1.91-0.88,2.85c-0.32,0.47-0.97,0.6-1.44,0.28c-0.47-0.32-0.6-0.97-0.28-1.44 c0.38-0.56,0.54-1.1,0.52-1.64C94.84,73.49,94.63,72.91,94.29,72.3L94.29,72.3z M97.53,62.18l-5.32,3.32l-2.19-14.93 c-11.07,6.9-23.7,9.98-37.45,10.32c-13.16-0.1-25.79-2.98-37.54-10.38l-2.39,14.45l-4.7-2.64c-0.42,0.46-1.08,0.68-1.72,0.51 c-0.9-0.23-1.51,0.06-1.88,0.67c-0.8,1.32-0.98,3.72-0.67,6.41c0.32,2.85,1.19,5.93,2.45,8.41c1.44,2.85,3.3,4.84,5.16,4.31l0,0 c0.89-0.25,1.83,0.23,2.14,1.12c0.55,1.59,0.96,2.8,1.35,3.97c2.33,6.95,4.12,12.29,8.22,17.08c3.77,4.42,8.56,7.88,13.6,10.32 c5.54,2.68,11.34,4.12,16.4,4.22c5.35,0.11,11.41-1.24,17.13-3.99c5.22-2.51,10.12-6.18,13.9-10.96c3.28-4.15,4.62-8.67,6.32-14.42 c0.44-1.48,0.9-3.05,1.5-4.91c0.21-0.91,1.09-1.51,2.02-1.35c2.22,0.39,4.55-2.95,6.14-7.05c0.96-2.45,1.61-5.15,1.83-7.57 c0.2-2.26,0.04-4.22-0.6-5.38c-0.34-0.62-0.93-0.92-1.81-0.73l0,0c-0.07,0.01-0.14,0.02-0.21,0.03 C98.5,63.09,97.86,62.74,97.53,62.18L97.53,62.18z"/></g></svg>